<?xml version="1.0" encoding="utf-8"?>
<!-- Generator: Adobe Illustrator 18.0.0, SVG Export Plug-In . SVG Version: 6.00 Build 0)  -->
<!DOCTYPE svg PUBLIC "-//W3C//DTD SVG 1.1//EN" "http://www.w3.org/Graphics/SVG/1.1/DTD/svg11.dtd">
<svg version="1.1" xmlns="http://www.w3.org/2000/svg" xmlns:xlink="http://www.w3.org/1999/xlink" x="0px" y="0px"
	 viewBox="0 0 300 300" enable-background="new 0 0 300 300" xml:space="preserve">
<g id="Layer_2">
	<path d="M150,20L0,280h300L150,20z M244.5,222.6c-3,2.2-6.4,3.4-9.9,3.4c-2.8,0-5.4-0.7-7.4-2.1c-2.9-2-4.3-3.3-4.8-3.9
		c-2.9,2.6-28.2,25-29.4,26.2c-0.9,0.9,0.1,3.9,0.5,5c4.2,6.3,7.4,9.8,12.6,9.8l0.2,0c7.5-0.1,25.7-2.9,25.9-2.9l0.1,0.7
		c-3.2,0.7-5.6,1.1-8.2,1.6c-2.4,0.4-4.9,0.9-8.3,1.5c-2,0.4-9.1,1.2-10.8,1.1c-3.2-0.3-6.3-1.8-8.9-4.3c-1.9-1.9-4.5-6-5.4-7.4
		l-4.6,7.1c2.2,2.4,5.6,4.8,10.9,8.4c5.1,3.4,20.6,9.5,20.8,9.6l1.7,0.7H80.5l1.7-0.7c0.2-0.1,15.7-6.2,20.8-9.6
		c5.3-3.6,8.7-6,10.9-8.4l-4.6-7.1c-0.9,1.4-3.5,5.5-5.4,7.4c-2.6,2.6-5.6,4.1-8.9,4.3c-1.7,0.1-8.8-0.7-10.8-1.1
		c-3.4-0.7-5.9-1.1-8.3-1.5c-2.6-0.5-5.1-0.9-8.2-1.6l0.1-0.7c0.2,0,18.3,2.8,25.9,2.9l0.2,0c5.2,0,8.4-3.5,12.6-9.9
		c0.4-1,1.4-4,0.5-4.9c-1.2-1.2-26.4-23.6-29.4-26.2c-0.5,0.6-1.8,2-4.8,3.9c-2,1.4-4.7,2.1-7.4,2.1c-3.4,0-6.9-1.2-9.9-3.4
		c-6.2-4.5-10.9-10.8-10.9-10.8l-0.2-0.3l0.3-0.2c1.8-1.3,6-2,12.3-2c1.5,0,3,0,4.7,0.1c5.5,0.2,11.1,2.8,17.2,7.8
		c4.7,3.9,17.4,15.6,18.6,16.7l9.9,0.8l1.5-3.1l-9.7-14.2c-0.2,0.1-0.5,0.2-0.9,0.2c-0.8,0-1.8-0.5-2.2-2.7c-0.6-3.2,0.3-5.2,3.6-8
		c-1.5-1.8-9.5-12-9.5-20c0-3.7,0.1-7.8,0.3-11.2l-13.5-23.3L150,25.7l73.1,126.7l-0.5,0.8l-13,22.5c0.1,3.4,0.3,7.4,0.3,11.2
		c0,8-8,18.1-9.5,20c3.3,2.8,4.2,4.8,3.6,8c-0.4,2.3-1.4,2.7-2.2,2.7c-0.4,0-0.7-0.1-0.9-0.2l-9.7,14.2l1.5,3.1l9.9-0.8
		c1.2-1.1,13.9-12.8,18.6-16.7c6.1-5,11.7-7.6,17.2-7.8c1.6-0.1,3.2-0.1,4.7-0.1c6.3,0,10.5,0.7,12.3,2l0.3,0.2l-0.2,0.3
		C255.4,211.8,250.7,218.1,244.5,222.6z"/>
</g>
<g id="Layer_1">
	<path d="M111.1,150.6c0.3-1.6,2.7-3.1,6-3.6c4.4-0.5,12.7,0.5,17.8,1.8c5.1,1.3,5.1,3,4.7,4c-0.3,0.9-2.8,2.2-6.9-0.2
		s-8.4-4.3-13.4-4.1C114.4,148.6,111.1,150.6,111.1,150.6z"/>
	<path d="M136.9,161.5c-1.9-2.8-6.4-6.4-11.4-6c-4.7,0.4-4.1,2.1-7.3,2.2c-3.4,0.1-4.6-0.9-6.3-2.6c0,0,0.1,5.1,4.8,6.8
		c0,0-1.7,2.8,0.9,4.2c0,0-1.9,2.1-4.8-0.1c0,0,1.5,3.6,6.6,2.1c5.2-1.6,11.6-1.7,18.4,0.2c0,0-0.6-2.5-3.7-3.4
		c-3.1-0.9-6.3-0.7-9.3,0.5c-2.7,1.1-5.4-1.6-5.3-3.9c0.1-2,2.2-3.4,6.1-3.2S136.9,161.5,136.9,161.5z"/>
	<path d="M188.9,150.6c-0.3-1.6-2.7-3.1-6-3.6c-4.4-0.5-12.7,0.5-17.8,1.8c-5.1,1.3-5.1,3-4.7,4s2.8,2.2,6.9-0.2s8.4-4.3,13.4-4.1
		C185.6,148.6,188.9,150.6,188.9,150.6z"/>
	<path d="M163.1,161.5c1.9-2.8,6.4-6.4,11.4-6c4.7,0.4,4.1,2.1,7.3,2.2c3.4,0.1,4.6-0.9,6.3-2.6c0,0-0.1,5.1-4.8,6.8
		c0,0,1.7,2.8-0.9,4.2c0,0,1.9,2.1,4.8-0.1c0,0-1.5,3.6-6.6,2.1c-5.2-1.6-11.6-1.7-18.4,0.2c0,0,0.6-2.5,3.7-3.4
		c3.1-0.9,6.3-0.7,9.3,0.5c2.7,1.1,5.4-1.6,5.3-3.9c-0.1-2-2.2-3.4-6.1-3.2C170.4,158.5,163.1,161.5,163.1,161.5z"/>
	<path d="M152.5,196.2c-0.3,0.3-0.6,1.5,0.1,1.2c0.7-0.3,1.4-1,2.7-1.2c1.3-0.1,3.4-0.1,3.3-1.2c0-1.1-0.4-1.9-1.6-1.9
		C156,193,153.4,195.1,152.5,196.2z"/>
	<path d="M144.5,162.1c1.5,6,0.3,22.3-1.5,26.8c-1.9,4.5-2.6,4.6,0,5.8c2.6,1.2,4.7,1.2,5.4,2.5c0.7,1.3,0.8-0.2,0.4-1.1
		s-3.2-1.1-4-2.7s2.2-26.8,2.2-26.8L144.5,162.1z"/>
	<g>
		<polygon points="194.3,119.8 194.3,119.8 194.3,119.8 		"/>
		<polygon points="105.7,119.8 105.7,119.8 105.7,119.8 		"/>
		<path d="M209.8,84.8c0,0-0.7-1.1-2.1-1.3c-1.5-0.2-7.5,0.7-10.9,4.7c0,0,1.1-7.2,6.4-10.8c5.2-3.6,6.4-4.1,8.8-4.2
			c0,0,0-1.8-1.6-2.3c-1.6-0.5-9,2.7-10.2,3.5c0,0,2.5-10.5,4.6-13.8l0.5-2c-3.2,2.3-15,26.6-16.7,45.5c-1-0.8-2.2-1.3-3.3-1.5
			c-1.2-0.2-1.8,0.4-1.8,0.7l0.5,0.2c1.9,1.5,1.6,3.3-0.2,4.7c-5,4-13.7,1.2-19.1-0.4c-4.9-1.5-10.3-3.2-14.7-6
			c-4.4,2.8-9.7,4.5-14.7,6c-5.5,1.6-14.1,4.4-19.1,0.4c-1.8-1.4-2-3.1-0.2-4.7l0.5-0.2c0-0.4-0.5-1-1.8-0.7
			c-1.1,0.2-2.2,0.7-3.3,1.5C109.8,85.3,98,61,94.8,58.7l0.5,2c2.1,3.3,4.6,13.8,4.6,13.8c-1.1-0.8-8.5-4-10.2-3.5
			c-1.6,0.5-1.6,2.3-1.6,2.3c2.4,0.2,3.6,0.7,8.8,4.2c5.2,3.6,6.4,10.8,6.4,10.8c-3.4-4-9.5-4.9-10.9-4.7c-1.5,0.2-2.1,1.3-2.1,1.3
			c1.8,0.8,4.6,2.4,7.8,6.4s1.5,10.8,1.5,10.8c-1.2-5-6.4-6.8-6.4-6.8c2.1,5.1,1.7,11.4,1.7,11.4c2.4,1.3,2.3,6,2.3,6
			c-1.8-0.3-3.1,0.8-3.8,2c-0.7,1.1,0.7,1.8,0.7,1.8c0.3-1.8,3.1,4.9,3.1,4.9c0.2,2.3-3.1,4.9-3.1,4.9c2.1,3.4,5.1,1.1,5.1,1.1
			c1,3.8-4.2,7.5-4.2,7.5c2.4,2.9,5.7,1.5,5.7,1.5c0,3.3,1.8,7.7,1.8,7.7c-0.3-7.2,4.2-17.1,4.2-17.1s0.4,0.4,1,0.2l0.2,3.4
			c0,0,1.6-4.5,4.6-5.3c0,0,19.2-6.4,37.7,13.2c18.4-19.6,37.7-13.2,37.7-13.2c3,0.8,4.6,5.3,4.6,5.3l0.2-3.4c0.6,0.2,1-0.2,1-0.2
			s4.6,10,4.2,17.1c0,0,1.8-4.4,1.8-7.7c0,0,3.3,1.5,5.7-1.5c0,0-5.2-3.8-4.2-7.5c0,0,2.9,2.3,5.1-1.1c0,0-3.3-2.6-3.1-4.9
			c0,0,2.8-6.7,3.1-4.9c0,0,1.3-0.7,0.7-1.8c-0.7-1.1-2-2.3-3.8-2c0,0-0.2-4.7,2.3-6c0,0-0.5-6.4,1.7-11.4c0,0-5.2,1.8-6.4,6.8
			c0,0-1.8-6.8,1.5-10.8S208,85.6,209.8,84.8z M107.8,114.2c-0.2,2.9-1,5.9-2.1,5.9c0,0,0,0,0,0l0,0c-1.1-0.1-1.5-3.1-1.3-6.1
			c0.2-2.9,1-5.9,2.1-5.9c0.6,0,1,0.7,1.2,2C107.8,111.2,107.9,112.6,107.8,114.2z M150,129.3c0,0-6.7-4.1-6.7-10.9
			c0-6.8,3.3-9,6.7-9c3.5,0,6.7,2.2,6.7,9C156.7,125.3,150,129.3,150,129.3z M195.5,118.1c-0.2,1.3-0.6,1.9-1.2,2l0,0
			c-1.1,0-1.9-3-2.1-5.9c-0.1-1.6,0-3,0.2-4.2c0.2-1.3,0.6-1.9,1.2-2h0c1.2,0,1.9,3,2.1,5.9C195.8,115.5,195.7,117,195.5,118.1z"/>
	</g>
	<path d="M198.9,215.7c-1.1-0.6-1.7-1.2-2-2c-0.5-1.2-0.5-1.7-0.3-3.1c0,0-7.8,10-8.5,11.5c-0.6,1.5-2.1,4.9-0.6,9.7
		c-0.1-0.5,2.1-3,2.4-3.4C192.8,224.3,195.9,219.9,198.9,215.7z"/>
	<path d="M187.9,234.2c0.4-2.4-6.4,4.9-6.4,10.5c0,5.6,0,9,2.8,11.4l5.6-9.9C189.8,246.2,187.2,238.5,187.9,234.2z"/>
	<path d="M101.1,215.7c1.1-0.6,1.7-1.2,2-2c0.5-1.2,0.5-1.7,0.3-3.1c0,0,7.8,10,8.5,11.5c0.6,1.5,2.1,4.9,0.6,9.7
		c0.1-0.5-2.1-3-2.4-3.4C107.2,224.3,104.1,219.9,101.1,215.7z"/>
	<path d="M112.1,234.2c-0.4-2.4,6.4,4.9,6.4,10.5c0,5.6,0,9-2.8,11.4l-5.6-9.9C110.2,246.2,112.8,238.5,112.1,234.2z"/>
</g>
</svg>
